# xmcd CD database file
#
# Track frame offsets:
#	150
#	17037
#	38937
#	58445
#	75272
#	92935
#	129272
#	155192
#	171267
#	190687
#	211495
#	235192
#
# Disc length: 3243 seconds
#
# Revision: 5
# Processed by: cddbd v1.5.2PL0 Copyright (c) Steve Scherf et al.
# Submitted via: CDex 1.51
#
DISCID=a00ca90c
DTITLE=Lucky Peterson - Move
DYEAR=1997
DGENRE=Blues
TTITLE0=You're The One For Me
TTITLE1=Don't You Even Care
TTITLE2=Let's Go Get Stoned
TTITLE3=It's Your Thing
TTITLE4=Move
TTITLE5=Tin Pan Alley
TTITLE6=I'm Back Again
TTITLE7=Play Dirty
TTITLE8=Purple Rain
TTITLE9=Move On You
TTITLE10=Pickin'
TTITLE11=What Cha Doing Out There
EXTD=Lucky Peterson plays Guitars, Hammond B-3 Organ, Hohner Clavinet, Acoustic, Electric and Wurlitzer Pianos\n\nButch Bonner plays Rhythm Guitar\nJohnny B. Gayden plays Bass\nDennis Chamber plays Drums YEAR: 1997
EXTT0=
EXTT1=
EXTT2=
EXTT3=
EXTT4=
EXTT5=
EXTT6=
EXTT7=
EXTT8=
EXTT9=
EXTT10=
EXTT11=
PLAYORDER=
